<svg width="512" height="512" viewBox="0 0 512 512" fill="none" xmlns="http://www.w3.org/2000/svg">
<path d="M204.8 256H238.933V221.867C238.933 215.116 236.931 208.516 233.181 202.903C229.43 197.29 224.099 192.915 217.862 190.332C211.625 187.748 204.762 187.072 198.141 188.389C191.52 189.706 185.438 192.957 180.664 197.731C175.89 202.504 172.639 208.586 171.322 215.208C170.005 221.829 170.681 228.692 173.265 234.929C175.848 241.166 180.223 246.497 185.836 250.248C191.45 253.998 198.049 256 204.8 256Z" fill="#CAA378"/>
<path d="M85.4185 283.307C85.4185 282.743 85.3332 282.197 85.3332 281.6C85.3031 241.431 99.5135 202.552 125.44 171.87L35.7119 185.097C31.6876 185.623 27.8988 187.293 24.7951 189.908C21.6914 192.523 19.403 195.974 18.2015 199.851C16.8587 203.759 16.6627 207.97 17.6365 211.986C18.6103 216.002 20.7133 219.656 23.6969 222.515L85.4185 283.307Z" fill="#CAA378"/>
<path d="M493.798 199.851C492.602 195.981 490.322 192.536 487.227 189.922C484.133 187.309 480.354 185.637 476.339 185.105L386.56 171.87C412.486 202.552 426.697 241.431 426.667 281.6C426.667 282.172 426.59 282.718 426.581 283.307L488.277 222.566C491.274 219.705 493.387 216.044 494.366 212.017C495.345 207.991 495.148 203.768 493.798 199.851Z" fill="#CAA378"/>
<path d="M256 435.2C286.379 435.2 316.076 426.192 341.335 409.314C366.595 392.436 386.282 368.447 397.908 340.38C409.533 312.314 412.575 281.43 406.649 251.634C400.722 221.839 386.093 194.47 364.612 172.988C343.13 151.507 315.761 136.878 285.966 130.951C256.17 125.025 225.286 128.067 197.22 139.692C169.153 151.318 145.164 171.005 128.286 196.264C111.408 221.524 102.4 251.221 102.4 281.6C102.447 322.323 118.645 361.364 147.441 390.159C176.236 418.955 215.277 435.153 256 435.2ZM204.8 170.667C213.252 170.67 221.571 172.766 229.016 176.767C236.461 180.768 242.8 186.549 247.467 193.596C251.658 187.223 257.221 181.867 263.748 177.92C270.275 173.973 277.601 171.534 285.192 170.782C292.782 170.029 300.445 170.982 307.62 173.571C314.795 176.16 321.301 180.319 326.662 185.745C332.023 191.17 336.105 197.725 338.608 204.931C341.111 212.136 341.972 219.809 341.129 227.39C340.286 234.971 337.76 242.268 333.735 248.748C329.71 255.227 324.289 260.725 317.867 264.841C320.078 267.378 321.766 270.327 322.833 273.519L332.672 265.651C335.774 263.169 339.514 261.613 343.461 261.164C347.408 260.714 351.402 261.389 354.983 263.11C358.563 264.831 361.585 267.529 363.699 270.892C365.813 274.255 366.934 278.148 366.933 282.121V349.346C366.941 353.322 365.824 357.219 363.711 360.586C361.598 363.954 358.576 366.655 354.992 368.377C351.409 370.1 347.412 370.773 343.462 370.32C339.512 369.866 335.772 368.305 332.672 365.816L324.198 359.04C324.032 365.706 321.27 372.044 316.502 376.706C311.734 381.367 305.335 383.984 298.667 384H196.267C189.477 384 182.966 381.303 178.165 376.502C173.364 371.701 170.667 365.19 170.667 358.4V281.6C170.691 275.421 172.966 269.463 177.067 264.841C167.802 258.84 160.724 250.006 156.889 239.655C153.054 229.305 152.667 217.992 155.785 207.403C158.903 196.814 165.36 187.517 174.193 180.897C183.026 174.276 193.762 170.688 204.8 170.667Z" fill="#CAA378"/>
<path d="M298.667 273.067H196.267C191.554 273.067 187.733 276.887 187.733 281.6V358.4C187.733 363.113 191.554 366.933 196.267 366.933H298.667C303.38 366.933 307.2 363.113 307.2 358.4V281.6C307.2 276.887 303.38 273.067 298.667 273.067Z" fill="#CAA378"/>
<path d="M347.588 352.973C348.279 352.655 348.862 352.142 349.267 351.498C349.672 350.854 349.88 350.107 349.867 349.346V282.12C349.867 281.364 349.653 280.622 349.25 279.981C348.847 279.341 348.272 278.826 347.59 278.498C346.908 278.17 346.147 278.041 345.395 278.127C344.643 278.212 343.93 278.508 343.339 278.98L324.267 294.238V337.229L343.339 352.486C343.924 352.971 344.637 353.275 345.391 353.361C346.146 353.447 346.909 353.312 347.588 352.973Z" fill="#CAA378"/>
<path d="M324.267 221.867C324.267 212.814 320.67 204.132 314.269 197.731C307.868 191.33 299.186 187.733 290.133 187.733C281.081 187.733 272.399 191.33 265.997 197.731C259.596 204.132 256 212.814 256 221.867V256H290.133C299.186 256 307.868 252.404 314.269 246.003C320.67 239.601 324.267 230.919 324.267 221.867Z" fill="#CAA378"/>
<path d="M256 25.5999C251.92 25.5657 247.916 26.706 244.466 28.8848C241.016 31.0636 238.266 34.189 236.544 37.8879L195.251 122.308C234.33 107.141 277.669 107.141 316.749 122.308L275.464 37.9049C273.743 34.2022 270.992 31.073 267.541 28.891C264.089 26.7091 260.083 25.5666 256 25.5999Z" fill="#CAA378"/>
<path d="M306.347 444.681L380.151 483.84C383.689 485.771 387.705 486.648 391.726 486.37C395.746 486.092 399.603 484.669 402.842 482.27C406.212 479.878 408.827 476.572 410.38 472.742C411.933 468.913 412.358 464.719 411.605 460.655L397.449 377.028C375.645 409.271 343.516 433.13 306.347 444.681Z" fill="#CAA378"/>
<path d="M109.158 482.244C112.396 484.644 116.253 486.066 120.274 486.345C124.294 486.623 128.311 485.745 131.848 483.814L205.653 444.681C168.468 433.126 136.325 409.254 114.517 376.994L100.369 460.621C99.615 464.688 100.042 468.886 101.6 472.719C103.158 476.551 105.78 479.856 109.158 482.244Z" fill="#CAA378"/>
</svg>
